<?xml version="1.0" standalone="no"?>
<!DOCTYPE svg PUBLIC "-//W3C//DTD SVG 20010904//EN"
 "http://www.w3.org/TR/2001/REC-SVG-20010904/DTD/svg10.dtd">
<svg version="1.0" xmlns="http://www.w3.org/2000/svg"
 width="512.000000pt" height="512.000000pt" viewBox="0 0 512.000000 512.000000"
 preserveAspectRatio="xMidYMid meet">
<metadata>
Created by potrace 1.11, written by Peter Selinger 2001-2013
</metadata>
<g transform="translate(0.000000,512.000000) scale(0.100000,-0.100000)"
fill="#000000" stroke="none">
<path d="M669 3591 l-24 -19 -3 -476 -3 -476 86 0 85 0 0 44 c0 62 33 162 75
223 64 94 161 144 285 146 136 2 235 -52 284 -157 25 -54 46 -150 46 -218 l0
-38 80 0 81 0 -7 78 c-13 159 -50 264 -120 342 -117 130 -357 160 -539 68 -58
-30 -144 -117 -165 -168 -14 -32 -15 -6 -20 293 l-5 329 -28 24 c-34 29 -76
31 -108 5z"/>
<path d="M3869 3150 c-37 -5 -77 -13 -89 -20 -18 -10 -19 -14 -8 -28 8 -9 8
-13 1 -9 -6 4 -13 2 -15 -5 -7 -19 3 -58 13 -52 5 3 6 -2 3 -10 -7 -19 -10
-19 50 -1 62 19 188 19 250 1 146 -44 239 -168 253 -338 l6 -68 -277 0 c-152
0 -279 0 -282 1 -13 1 -21 -23 -16 -47 2 -13 9 -21 14 -18 6 4 5 -3 -1 -15 -8
-15 -9 -21 -1 -21 6 0 8 -4 5 -10 -4 -7 108 -10 329 -10 l335 0 21 28 c20 25
21 34 15 111 -9 109 -28 180 -66 258 -91 180 -306 281 -540 253z"/>
<path d="M642 2244 c3 -245 3 -246 27 -265 13 -10 38 -19 56 -19 18 0 43 9 56
19 24 19 24 20 27 265 l3 246 -86 0 -86 0 3 -246z"/>
<path d="M1492 2250 c3 -232 4 -240 25 -262 30 -30 86 -30 116 0 21 22 22 30
25 262 l3 240 -86 0 -86 0 3 -240z"/>
<path d="M4225 2108 c-81 -28 -102 -31 -215 -31 -97 0 -140 5 -191 20 l-66 21
5 -24 c2 -13 9 -21 14 -18 6 4 5 -3 -1 -15 -9 -16 -9 -21 0 -21 8 0 7 -5 -2
-17 -12 -15 -12 -16 1 -8 13 8 13 6 1 -8 -12 -15 -10 -18 14 -27 100 -38 357
-29 496 17 89 29 119 52 119 91 0 61 -40 65 -175 20z"/>
<path d="M1368 1043 l-28 -4 0 -195 0 -194 64 0 65 0 3 48 3 47 71 6 c83 6
134 33 158 83 36 75 12 152 -57 188 -34 17 -62 22 -147 24 -58 1 -117 0 -132
-3z m176 -74 c76 -35 46 -159 -39 -159 l-35 0 0 78 c0 43 3 82 7 85 10 10 39
8 67 -4z"/>
<path d="M1770 850 l0 -200 65 0 65 0 0 80 0 80 70 0 70 0 0 -80 0 -80 60 0
60 0 0 200 0 200 -60 0 -60 0 0 -80 0 -80 -70 0 -70 0 0 80 0 80 -65 0 -65 0
0 -200z"/>
<path d="M2270 850 l0 -200 65 0 65 0 0 200 0 200 -65 0 -65 0 0 -200z"/>
<path d="M2500 850 l0 -200 119 0 119 0 6 31 c3 17 6 35 6 40 0 5 -27 9 -60 9
l-60 0 0 160 0 160 -65 0 -65 0 0 -200z"/>
<path d="M2800 850 l0 -200 65 0 65 0 0 200 0 200 -65 0 -65 0 0 -200z"/>
<path d="M3058 1043 l-28 -4 0 -195 0 -194 65 0 65 0 0 49 0 48 76 5 c54 4 83
11 102 25 98 72 95 196 -6 244 -36 18 -66 23 -146 25 -56 1 -113 0 -128 -3z
m180 -79 c32 -22 43 -55 31 -98 -11 -40 -33 -56 -78 -56 l-31 0 0 85 0 85 28
0 c15 0 38 -7 50 -16z"/>
<path d="M3535 1036 c-55 -21 -85 -58 -85 -106 0 -53 30 -84 114 -118 77 -31
97 -51 77 -76 -17 -20 -91 -21 -156 -2 l-47 15 5 -41 c3 -23 11 -45 19 -49 38
-24 194 -22 242 3 63 32 89 92 66 149 -15 34 -29 44 -120 79 -55 22 -65 30
-65 50 0 25 1 25 83 24 l84 -1 -7 36 c-4 20 -8 38 -10 39 -2 2 -39 6 -82 8
-54 3 -90 0 -118 -10z"/>
</g>
</svg>
